<svg height="486pt" viewBox="-61 0 486 486" width="486pt" xmlns="http://www.w3.org/2000/svg"><path d="m353.941406 119.5-21.140625 156.878906c-35.289062-1.019531-36.378906-18.378906-73.789062-18.378906-38.53125 0-38.53125 18.421875-77.070313 18.421875-38.539062 0-38.53125-18.421875-77.058594-18.421875l-.3125.039062-4.578124-33.9375v-.011718c50.550781-5.691406 85.441406-58.390625 66.839843-104.589844zm0 0" fill="#00efd1"/><path d="m332.800781 276.378906-22.207031 164.75c-2.679688 19.847656-19.617188 34.65625-39.640625 34.660156h-102.0625c-20.027344.003907-36.96875-14.808593-39.636719-34.660156l-24.683594-183.089844.3125-.039062c38.527344 0 38.527344 18.421875 77.058594 18.421875s38.539063-18.421875 77.070313-18.421875c37.410156 0 38.5 17.359375 73.789062 18.378906zm0 0" fill="#00acea"/><path d="m166.832031 119.5c18.601563 46.199219-16.289062 98.898438-66.839843 104.589844-3 .34375-6.019532.511718-9.039063.511718-45.601563 0-80.949219-38.179687-80.949219-79.113281.011719-12.59375 3.375-24.960937 9.75-35.828125l71.199219-99.449218 71.1875 99.730468c1.792969 3.070313 3.359375 6.261719 4.691406 9.558594zm0 0" fill="#fedb41"/><g fill="#083863"><path d="m11.101562 104.644531c-7.277343 12.382813-11.1093745 26.484375-11.101562 40.84375 0 48.300781 41.648438 89.113281 90.949219 89.113281.121093 0 .242187 0 .363281-.007812l28.027344 207.972656c3.398437 24.796875 24.523437 43.316406 49.550781 43.433594h102.0625c25.023437-.125 46.144531-18.636719 49.550781-43.429688l22.207032-164.800781 21.140624-156.898437c.386719-2.785156-.488281-5.601563-2.382812-7.679688-1.921875-2.113281-4.671875-3.277344-7.527344-3.191406h-180.679687c-.6875-1.683594-1.515625-3.304688-2.480469-4.847656-.152344-.261719-.320312-.644532-.5-.898438l-71.191406-99.898437c-1.855469-2.671875-4.878906-4.2890628-8.128906-4.355469h-.007813c-3.242187.0390625-6.265625 1.632812-8.132813 4.285156l-71.199218 99.5c-.1875.261719-.359375.582032-.519532.859375zm289.582032 335.253907c-2.039063 14.886718-14.710938 26.007812-29.730469 26.101562h-102.0625c-15.023437-.089844-27.695313-11.214844-29.730469-26.101562l-23.070312-171.179688c9.855468 1.277344 16.078125 4.226562 23.007812 7.539062 9.992188 4.777344 21.3125 10.175782 42.84375 10.175782s32.863282-5.421875 42.855469-10.195313c9.238281-4.417969 17.21875-8.234375 34.214844-8.234375 16.996093 0 24.980469 3.8125 34.222656 8.230469 7.414063 3.546875 15.632813 7.507813 28.253906 9.277344zm23.472656-174c-9.433594-1.328126-15.511719-4.34375-22.300781-7.585938-9.988281-4.777344-21.3125-10.253906-42.847657-10.253906-21.539062 0-32.855468 5.382812-42.84375 10.15625-9.242187 4.417968-17.222656 8.21875-34.226562 8.21875s-24.976562-3.824219-34.21875-8.242188c-8.589844-4.105468-18.171875-8.683594-34.378906-9.886718l-2.152344-16.003907c24.386719-5.65625 45.433594-20.976562 58.304688-42.449219 11.191406-18.761718 14.890624-39.851562 10.757812-59.851562h162.253906zm-295.984375-150.824219 62.765625-87.667969 62.785156 87.953125c1.457032 2.535156 2.734375 5.167969 3.832032 7.875 7.230468 17.964844 5.324218 38.417969-5.238282 56.117187-11.445312 19.265626-31.191406 32.125-53.445312 34.800782h-.019532c-2.625.296875-5.261718.445312-7.902343.445312-18.996094-.015625-37.1875-7.671875-50.472657-21.25-13.011718-13.117187-20.472656-30.5625-20.472656-47.859375 0-10.679687 2.816406-21.167969 8.167969-30.414062zm0 0"/><path d="m90.402344 197.378906c29.371094-.03125 53.175781-23.835937 53.210937-53.207031 0-5.523437-4.476562-10-10-10-5.523437 0-10 4.476563-10 10-.023437 18.332031-14.878906 33.1875-33.210937 33.207031-5.523438 0-10 4.476563-10 10 0 5.523438 4.476562 10 10 10zm0 0"/></g></svg>