<?xml version="1.0" encoding="UTF-8" standalone="no"?>
<!-- Generator: Adobe Illustrator 19.0.0, SVG Export Plug-In . SVG Version: 6.00 Build 0)  -->

<svg
   xmlns:dc="http://purl.org/dc/elements/1.1/"
   xmlns:cc="http://creativecommons.org/ns#"
   xmlns:rdf="http://www.w3.org/1999/02/22-rdf-syntax-ns#"
   xmlns:svg="http://www.w3.org/2000/svg"
   xmlns="http://www.w3.org/2000/svg"
   xmlns:sodipodi="http://sodipodi.sourceforge.net/DTD/sodipodi-0.dtd"
   xmlns:inkscape="http://www.inkscape.org/namespaces/inkscape"
   version="1.1"
   id="Capa_1"
   x="0px"
   y="0px"
   viewBox="0 0 490 490"
   style="enable-background:new 0 0 490 490;"
   xml:space="preserve"
   sodipodi:docname="bom.svg"
   inkscape:version="0.92.3 (2405546, 2018-03-11)"><metadata
   id="metadata39"><rdf:RDF><cc:Work
       rdf:about=""><dc:format>image/svg+xml</dc:format><dc:type
         rdf:resource="http://purl.org/dc/dcmitype/StillImage" /><dc:title></dc:title></cc:Work></rdf:RDF></metadata><defs
   id="defs37" /><sodipodi:namedview
   pagecolor="#ffffff"
   bordercolor="#666666"
   borderopacity="1"
   objecttolerance="10"
   gridtolerance="10"
   guidetolerance="10"
   inkscape:pageopacity="0"
   inkscape:pageshadow="2"
   inkscape:window-width="1366"
   inkscape:window-height="713"
   id="namedview35"
   showgrid="false"
   inkscape:zoom="0.48163265"
   inkscape:cx="-89.279661"
   inkscape:cy="245"
   inkscape:window-x="0"
   inkscape:window-y="27"
   inkscape:window-maximized="1"
   inkscape:current-layer="Capa_1" />
<path
   d="m -420.74586,427.71186 h 172.9329 c 18.72023,0 33.95703,-15.2368 33.95703,-33.95753 v -172.9324 c 0,-18.72073 -15.2368,-33.95753 -33.95753,-33.95753 h -172.9324 c -18.72466,0 -33.95753,15.2368 -33.95753,33.95753 v 172.9329 c 0,18.72023 15.23287,33.95703 33.95753,33.95703 z m 86.4662,-49.39192 c -29.97174,0 -54.26883,-24.29708 -54.26883,-54.26883 h 108.53766 c 0,29.97175 -24.29708,54.26883 -54.26883,54.26883 z m 42.93426,-126.25616 c 11.57591,0 20.95962,9.38371 20.95962,20.95913 0,11.57592 -9.38371,20.95963 -20.95962,20.95963 -11.57543,0 -20.95914,-9.38371 -20.95914,-20.95963 0,-11.57542 9.38371,-20.95913 20.95914,-20.95913 z m -85.86851,0 c 11.57542,0 20.95913,9.38371 20.95913,20.95913 0,11.57592 -9.38371,20.95963 -20.95913,20.95963 -11.57592,0 -20.95963,-9.38371 -20.95963,-20.95963 0,-11.57542 9.38371,-20.95913 20.95963,-20.95913 z"
   id="path2"
   style="fill:#3880ff;fill-opacity:1;stroke-width:0.49152541"
   inkscape:connector-curvature="0" />
<g
   id="g4">
</g>
<g
   id="g6">
</g>
<g
   id="g8">
</g>
<g
   id="g10">
</g>
<g
   id="g12">
</g>
<g
   id="g14">
</g>
<g
   id="g16">
</g>
<g
   id="g18">
</g>
<g
   id="g20">
</g>
<g
   id="g22">
</g>
<g
   id="g24">
</g>
<g
   id="g26">
</g>
<g
   id="g28">
</g>
<g
   id="g30">
</g>
<g
   id="g32">
</g>
</svg>