<svg height="486pt" viewBox="-61 0 486 486" width="486pt" xmlns="http://www.w3.org/2000/svg" xmlns:xlink="http://www.w3.org/1999/xlink"><linearGradient id="a"><stop offset="0" stop-color="#00efd1"/><stop offset="1" stop-color="#00acea"/></linearGradient><linearGradient id="b" gradientUnits="userSpaceOnUse" x1="181.948418" x2="181.948418" xlink:href="#a" y1="-1" y2="486.332"/><linearGradient id="c" gradientUnits="userSpaceOnUse" x1="111.957418" x2="111.957418" xlink:href="#a" y1="-1" y2="486.332"/><path d="m353.894531 110h-180.679687c-.6875-1.6875-1.515625-3.308594-2.484375-4.851562-.15625-.265626-.324219-.648438-.5-.898438l-71.191407-99.890625c-1.859374-2.671875-4.882812-4.2929688-8.132812-4.359375h-.007812c-3.242188.0429688-6.265626 1.636719-8.132813 4.285156l-71.191406 99.5c-.183594.261719-.359375.554688-.519531.832032-14.957032 25.800781-14.722657 57.125.628906 83.769531 16.28125 28.425781 46.460937 46.03125 79.214844 46.214843h.371093l28.019531 207.976563c3.40625 24.789063 24.527344 43.300781 49.550782 43.421875h102.0625c25.023437-.121094 46.148437-18.636719 49.550781-43.429688l43.351563-321.679687c.386718-2.789063-.488282-5.605469-2.382813-7.691406-1.921875-2.113281-4.671875-3.28125-7.527344-3.199219zm-324.882812 68.421875c-11.832031-20.539063-12.148438-43.601563-.886719-63.339844l62.761719-87.675781 62.785156 87.949219c11.238281 19.582031 10.945313 42.511719-.816406 62.984375-12.566407 22.382812-36.230469 36.246094-61.898438 36.261718-25.667969.019532-49.351562-13.8125-61.945312-36.179687zm271.621093 261.476563c-2.039062 14.886718-14.710937 26.007812-29.730468 26.101562h-102.0625c-15.023438-.09375-27.691406-11.214844-29.730469-26.101562l-23.066406-171.183594c9.851562 1.277344 16.074219 4.226562 23.007812 7.542968 9.988281 4.777344 21.3125 10.179688 42.84375 10.179688 21.535157 0 32.859375-5.421875 42.851563-10.199219 9.238281-4.421875 17.21875-8.242187 34.214844-8.242187 17 0 24.976562 3.816406 34.21875 8.234375 7.449218 3.566406 15.640624 7.53125 28.253906 9.292969zm23.472657-174c-9.4375-1.328126-15.535157-4.355469-22.300781-7.589844-9.988282-4.777344-21.3125-10.253906-42.847657-10.253906-21.535156 0-32.855469 5.382812-42.84375 10.164062-9.242187 4.417969-17.222656 8.21875-34.21875 8.21875-17 0-24.972656-3.824219-34.214843-8.238281-8.589844-4.109375-18.175782-8.6875-34.382813-9.890625l-2.160156-16.027344c24.90625-5.738281 46.300781-21.578125 59.058593-43.722656 10.640626-18.519532 13.957032-39.558594 9.949219-58.558594h162.3125zm0 0" fill="url(#b)"/><path d="m143.558594 144.171875c0-5.523437-4.476563-10-10-10-5.523438 0-10 4.476563-10 10-.023438 18.328125-14.875 33.175781-33.199219 33.199219-5.523437 0-10 4.480468-10 10 0 5.523437 4.476563 10 10 10 29.367187-.035156 53.164063-23.832032 53.199219-53.199219zm0 0" fill="url(#c)"/></svg>